<svg xmlns="http://www.w3.org/2000/svg" xmlns:xlink="http://www.w3.org/1999/xlink" width="500" zoomAndPan="magnify" viewBox="0 0 375 374.999991" height="500" preserveAspectRatio="xMidYMid meet" version="1.0"><defs><clipPath id="aca114d4fb"><path d="M 45 64.125 L 337.5 64.125 L 337.5 310.875 L 45 310.875 Z M 45 64.125 " clip-rule="nonzero"/></clipPath></defs><g clip-path="url(#aca114d4fb)"><path fill="#a7c957" d="M 336.34375 65.304688 C 335.632812 64.566406 334.660156 64.148438 333.636719 64.148438 C 272.960938 64.148438 228.460938 80.648438 201.363281 113.175781 C 176.152344 143.441406 172.160156 180.046875 172.5 202.222656 C 167.941406 194.472656 162.519531 186.96875 156.070312 179.992188 C 131.289062 153.171875 96.144531 139.570312 51.621094 139.570312 C 49.914062 139.570312 48.429688 140.71875 47.988281 142.367188 C 47.554688 144.015625 37.597656 183.105469 61.597656 214.269531 C 80.164062 238.386719 113.570312 250.613281 160.875 250.613281 C 161.972656 250.613281 163.015625 250.132812 163.730469 249.296875 C 164.441406 248.464844 164.75 247.359375 164.585938 246.273438 C 164.304688 244.515625 157.085938 202.886719 92.246094 176.925781 C 90.332031 176.152344 88.128906 177.082031 87.367188 179.015625 C 86.59375 180.9375 87.53125 183.125 89.457031 183.894531 C 137.976562 203.320312 152.171875 232.144531 155.929688 243.054688 C 113.742188 242.253906 84.039062 231.058594 67.589844 209.75 C 49.328125 186.085938 52.960938 156.289062 54.65625 147.105469 C 95.539062 147.699219 127.785156 160.460938 150.527344 185.046875 C 193.683594 231.710938 188.410156 306.117188 188.351562 306.867188 C 188.1875 308.933594 189.734375 310.738281 191.800781 310.898438 C 191.898438 310.910156 192.003906 310.914062 192.097656 310.914062 C 194.042969 310.914062 195.683594 309.421875 195.839844 307.453125 C 196.027344 305.074219 199.09375 262.144531 181.4375 220.109375 C 180.386719 213.316406 173.234375 158.675781 207.128906 117.984375 C 232.136719 87.960938 273.316406 72.390625 329.578125 71.683594 C 327.449219 94.152344 311.527344 205.085938 205.976562 207.660156 C 206.386719 194.46875 211.25 148.097656 258.074219 121.175781 C 259.871094 120.136719 260.488281 117.84375 259.457031 116.046875 C 258.417969 114.246094 256.128906 113.628906 254.328125 114.660156 C 195.644531 148.410156 198.441406 211.039062 198.476562 211.667969 C 198.585938 213.660156 200.226562 215.214844 202.222656 215.214844 C 329.8125 215.214844 337.328125 69.535156 337.382812 68.0625 C 337.429688 67.039062 337.050781 66.042969 336.34375 65.304688 " fill-opacity="1" fill-rule="nonzero"/></g></svg>